<svg width="23" height="23" viewBox="0 0 23 23" fill="none" xmlns="http://www.w3.org/2000/svg">
<g clip-path="url(#clip0_6_898)">
<path d="M22.2745 8.30872L15.0428 7.69836L12.2297 1.01072C12.1103 0.718812 11.8184 0.519775 11.5 0.519775C11.1815 0.519775 10.8896 0.705559 10.7702 1.01072L7.95709 7.69836L0.725452 8.30872C0.406993 8.33527 0.128341 8.54757 0.0354732 8.85277C-0.057395 9.15798 0.0354732 9.48969 0.274317 9.70198L5.75448 14.4391L4.10908 21.4982C4.04272 21.8167 4.16214 22.1351 4.41428 22.3209C4.67968 22.5067 5.02465 22.52 5.29005 22.3607L11.5 18.6056L17.7099 22.3607C17.8426 22.4403 17.9753 22.4801 18.1213 22.4801C18.2805 22.4801 18.453 22.4271 18.5857 22.3342C18.8511 22.1484 18.9705 21.8167 18.8909 21.5115L17.2456 14.4523L22.7257 9.71523C22.9646 9.50294 23.0574 9.17118 22.9646 8.86602C22.8716 8.54756 22.593 8.33527 22.2745 8.30872ZM15.839 13.5633C15.6134 13.7623 15.5205 14.0542 15.5869 14.3462L16.9138 20.0386L11.9113 17.0133C11.7786 16.9337 11.6459 16.8939 11.5 16.8939C11.354 16.8939 11.2081 16.9337 11.0887 17.0133L6.08619 20.0386L7.41309 14.3462C7.47945 14.0543 7.38654 13.7623 7.16099 13.5633L2.74237 9.74179L8.5675 9.25084C8.85941 9.22429 9.12481 9.03855 9.23098 8.77316L11.5 3.37261L13.769 8.75986C13.8884 9.03851 14.1405 9.22429 14.4325 9.23754L20.2576 9.72849L15.839 13.5633Z" fill="#FDB600"/>
</g>
<defs>
<clipPath id="clip0_6_898">
<rect width="23" height="23" fill="white"/>
</clipPath>
</defs>
</svg>
