<svg width="48" height="48" viewBox="0 0 48 48" fill="none" xmlns="http://www.w3.org/2000/svg">
<path d="M16.0618 11.0611C15.421 13.0459 15.1479 15.1473 15.2803 17.2646C15.5381 21.2961 17.257 25.0934 20.1168 27.9533C21.7027 29.5392 23.5546 30.7661 25.6095 31.6022C27.6019 32.4072 29.7034 32.8209 31.86 32.8209C33.5712 32.8209 35.2589 32.5632 36.8837 32.0477C36.3211 32.8992 35.6726 33.7041 34.9459 34.4309L34.9224 34.4544C32.0707 37.2825 28.2888 38.8454 24.265 38.8454C20.2335 38.8454 16.4362 37.2749 13.5845 34.4232C10.7328 31.5633 9.16225 27.7742 9.16225 23.7345C9.16225 19.703 10.7328 15.9057 13.5845 13.0541C14.3429 12.3033 15.1791 11.6318 16.0618 11.0611ZM20.1327 7.27966C17.2498 7.9987 14.5229 9.48286 12.2645 11.7331C5.63905 18.3585 5.63905 29.1096 12.2645 35.7509C15.5775 39.0638 19.9215 40.7203 24.2655 40.7203C28.6095 40.7203 32.9539 39.0638 36.2664 35.7509C38.4855 33.5318 39.9619 30.8285 40.7045 27.9921C38.0947 29.9611 34.9776 30.9379 31.86 30.9379C28.0863 30.9379 24.3202 29.5003 21.4373 26.6251C16.1635 21.3437 15.7258 13.0613 20.1327 7.27966Z" fill="#0E7490"/>
</svg>
